# xmcd CD database file
#
# Track frame offsets:
#	150
#	17667
#	36135
#	49010
#	77989
#	94925
#	134003
#
# Disc length: 2055 seconds
#
# Revision: 0
# Processed by: cddbd v1.4PL0 Copyright (c) Steve Scherf et al.
# Submitted via: CDex 1.50
#
DISCID=58080507
DTITLE=Inga Swearingen - Learning How To Fly
DYEAR=2003
DGENRE=Jazz
TTITLE0=Learning How To Fly - Fly Me To The Moon
TTITLE1=Caravan
TTITLE2=The Nearness of You - Misty
TTITLE3=Mood Indigo
TTITLE4=Dat Dere
TTITLE5=All Blues
TTITLE6=Speak Low
EXTD=YEAR: 2003
EXTT0=
EXTT1=
EXTT2=
EXTT3=
EXTT4=
EXTT5=
EXTT6=
PLAYORDER=
